<svg width="1440" height="820" viewBox="0 0 1440 820" fill="none" xmlns="http://www.w3.org/2000/svg">
<g clip-path="url(#clip0)">
<rect width="1440" height="820" fill="#F0F0F7"/>
<rect width="1440" height="272" fill="#8257E5"/>
<path d="M354.412 88.304H373.816V92.732H359.632V98.168H372.232V102.596H359.632V108.572H374.032V113H354.412V88.304ZM386.128 113.432C383.488 113.432 381.412 112.892 379.9 111.812C378.412 110.708 377.668 109.244 377.668 107.42L377.704 106.988H382.492V107.24C382.516 108.08 382.888 108.692 383.608 109.076C384.352 109.436 385.252 109.616 386.308 109.616C387.292 109.616 388.132 109.484 388.828 109.22C389.524 108.956 389.872 108.524 389.872 107.924C389.872 107.252 389.512 106.748 388.792 106.412C388.096 106.076 386.992 105.74 385.48 105.404C383.92 105.044 382.648 104.684 381.664 104.324C380.68 103.94 379.828 103.352 379.108 102.56C378.388 101.768 378.028 100.712 378.028 99.392C378.028 97.544 378.796 96.128 380.332 95.144C381.892 94.136 383.896 93.632 386.344 93.632C388.624 93.632 390.508 94.1 391.996 95.036C393.484 95.948 394.228 97.196 394.228 98.78L394.192 99.608H389.404V99.392C389.404 98.768 389.104 98.288 388.504 97.952C387.928 97.616 387.148 97.448 386.164 97.448C385.18 97.448 384.4 97.58 383.824 97.844C383.248 98.108 382.96 98.48 382.96 98.96C382.96 99.56 383.284 100.004 383.932 100.292C384.604 100.58 385.672 100.868 387.136 101.156C388.744 101.516 390.052 101.876 391.06 102.236C392.068 102.596 392.944 103.184 393.688 104C394.432 104.816 394.804 105.92 394.804 107.312C394.804 111.392 391.912 113.432 386.128 113.432ZM403.648 113.432C401.872 113.432 400.6 112.952 399.832 111.992C399.064 111.032 398.68 109.82 398.68 108.356V98.096H396.412V94.064H398.788L399.616 88.736H403.612V94.064H406.888V98.096H403.612V107.852C403.612 108.884 404.128 109.4 405.16 109.4H406.888V112.856C406.48 113 405.964 113.132 405.34 113.252C404.74 113.372 404.176 113.432 403.648 113.432ZM418.372 113.432C415.324 113.432 413.044 112.628 411.532 111.02C410.044 109.412 409.3 106.916 409.3 103.532C409.3 100.148 410.044 97.652 411.532 96.044C413.044 94.436 415.324 93.632 418.372 93.632C421.18 93.632 423.28 94.448 424.672 96.08C426.064 97.688 426.76 100.172 426.76 103.532V104.684H414.304C414.352 106.364 414.688 107.612 415.312 108.428C415.936 109.22 416.98 109.616 418.444 109.616C419.476 109.616 420.304 109.328 420.928 108.752C421.576 108.176 421.9 107.36 421.9 106.304H426.76C426.76 108.68 425.992 110.468 424.456 111.668C422.92 112.844 420.892 113.432 418.372 113.432ZM421.648 101.408C421.648 98.792 420.556 97.484 418.372 97.484C417.124 97.484 416.176 97.808 415.528 98.456C414.904 99.104 414.52 100.088 414.376 101.408H421.648ZM438.124 113.432C435.484 113.432 433.408 112.892 431.896 111.812C430.408 110.708 429.664 109.244 429.664 107.42L429.7 106.988H434.488V107.24C434.512 108.08 434.884 108.692 435.604 109.076C436.348 109.436 437.248 109.616 438.304 109.616C439.288 109.616 440.128 109.484 440.824 109.22C441.52 108.956 441.868 108.524 441.868 107.924C441.868 107.252 441.508 106.748 440.788 106.412C440.092 106.076 438.988 105.74 437.476 105.404C435.916 105.044 434.644 104.684 433.66 104.324C432.676 103.94 431.824 103.352 431.104 102.56C430.384 101.768 430.024 100.712 430.024 99.392C430.024 97.544 430.792 96.128 432.328 95.144C433.888 94.136 435.892 93.632 438.34 93.632C440.62 93.632 442.504 94.1 443.992 95.036C445.48 95.948 446.224 97.196 446.224 98.78L446.188 99.608H441.4V99.392C441.4 98.768 441.1 98.288 440.5 97.952C439.924 97.616 439.144 97.448 438.16 97.448C437.176 97.448 436.396 97.58 435.82 97.844C435.244 98.108 434.956 98.48 434.956 98.96C434.956 99.56 435.28 100.004 435.928 100.292C436.6 100.58 437.668 100.868 439.132 101.156C440.74 101.516 442.048 101.876 443.056 102.236C444.064 102.596 444.94 103.184 445.684 104C446.428 104.816 446.8 105.92 446.8 107.312C446.8 111.392 443.908 113.432 438.124 113.432ZM468.147 113.432C465.507 113.432 463.431 112.892 461.919 111.812C460.431 110.708 459.687 109.244 459.687 107.42L459.723 106.988H464.511V107.24C464.535 108.08 464.907 108.692 465.627 109.076C466.371 109.436 467.271 109.616 468.327 109.616C469.311 109.616 470.151 109.484 470.847 109.22C471.543 108.956 471.891 108.524 471.891 107.924C471.891 107.252 471.531 106.748 470.811 106.412C470.115 106.076 469.011 105.74 467.499 105.404C465.939 105.044 464.667 104.684 463.683 104.324C462.699 103.94 461.847 103.352 461.127 102.56C460.407 101.768 460.047 100.712 460.047 99.392C460.047 97.544 460.815 96.128 462.351 95.144C463.911 94.136 465.915 93.632 468.363 93.632C470.643 93.632 472.527 94.1 474.015 95.036C475.503 95.948 476.247 97.196 476.247 98.78L476.211 99.608H471.423V99.392C471.423 98.768 471.123 98.288 470.523 97.952C469.947 97.616 469.167 97.448 468.183 97.448C467.199 97.448 466.419 97.58 465.843 97.844C465.267 98.108 464.979 98.48 464.979 98.96C464.979 99.56 465.303 100.004 465.951 100.292C466.623 100.58 467.691 100.868 469.155 101.156C470.763 101.516 472.071 101.876 473.079 102.236C474.087 102.596 474.963 103.184 475.707 104C476.451 104.816 476.823 105.92 476.823 107.312C476.823 111.392 473.931 113.432 468.147 113.432ZM484.947 113.432C483.483 113.432 482.139 113.048 480.915 112.28C479.691 111.512 479.079 110.12 479.079 108.104C479.079 105.68 480.075 103.964 482.067 102.956C484.059 101.924 486.879 101.408 490.527 101.408V100.076C490.527 99.236 490.335 98.588 489.951 98.132C489.591 97.676 488.895 97.448 487.863 97.448C486.759 97.448 485.967 97.616 485.487 97.952C485.031 98.288 484.803 98.684 484.803 99.14V99.68H480.051C480.027 99.536 480.015 99.272 480.015 98.888C480.015 97.304 480.711 96.032 482.103 95.072C483.519 94.112 485.391 93.632 487.719 93.632C490.311 93.632 492.243 94.16 493.515 95.216C494.811 96.272 495.459 97.796 495.459 99.788V108.14C495.459 108.572 495.579 108.896 495.819 109.112C496.059 109.304 496.359 109.4 496.719 109.4H497.727V112.856C496.959 113.24 496.011 113.432 494.883 113.432C493.899 113.432 493.071 113.216 492.399 112.784C491.751 112.352 491.307 111.74 491.067 110.948H490.851C490.155 111.764 489.351 112.388 488.439 112.82C487.551 113.228 486.387 113.432 484.947 113.432ZM486.495 109.544C487.887 109.544 488.907 109.16 489.555 108.392C490.203 107.6 490.527 106.556 490.527 105.26V104.684C486.231 104.684 484.083 105.644 484.083 107.564C484.083 108.164 484.275 108.644 484.659 109.004C485.067 109.364 485.679 109.544 486.495 109.544ZM481.923 91.364C481.923 90.092 482.211 89.048 482.787 88.232C483.387 87.392 484.275 86.972 485.451 86.972C485.835 86.972 486.195 87.032 486.531 87.152C486.867 87.248 487.335 87.416 487.935 87.656C488.439 87.872 488.859 88.04 489.195 88.16C489.531 88.256 489.879 88.304 490.239 88.304C490.599 88.304 490.875 88.208 491.067 88.016C491.283 87.8 491.427 87.452 491.499 86.972H494.019C494.019 88.244 493.719 89.3 493.119 90.14C492.543 90.956 491.655 91.364 490.455 91.364C490.071 91.364 489.711 91.316 489.375 91.22C489.063 91.1 488.607 90.92 488.007 90.68C487.503 90.464 487.083 90.308 486.747 90.212C486.411 90.092 486.063 90.032 485.703 90.032C484.983 90.032 484.563 90.476 484.443 91.364H481.923ZM509.019 113.432C505.779 113.432 503.367 112.628 501.783 111.02C500.199 109.412 499.407 106.916 499.407 103.532C499.407 100.148 500.199 97.652 501.783 96.044C503.367 94.436 505.779 93.632 509.019 93.632C512.259 93.632 514.671 94.436 516.255 96.044C517.863 97.652 518.667 100.148 518.667 103.532C518.667 106.916 517.863 109.412 516.255 111.02C514.671 112.628 512.259 113.432 509.019 113.432ZM509.019 109.4C510.627 109.4 511.791 108.944 512.511 108.032C513.231 107.096 513.591 105.692 513.591 103.82V103.244C513.591 101.372 513.231 99.98 512.511 99.068C511.791 98.132 510.627 97.664 509.019 97.664C507.411 97.664 506.247 98.132 505.527 99.068C504.831 99.98 504.483 101.372 504.483 103.244V103.82C504.483 105.692 504.831 107.096 505.527 108.032C506.247 108.944 507.411 109.4 509.019 109.4ZM541.046 113.432C537.806 113.432 535.394 112.628 533.81 111.02C532.226 109.412 531.434 106.916 531.434 103.532C531.434 100.148 532.226 97.652 533.81 96.044C535.394 94.436 537.806 93.632 541.046 93.632C544.286 93.632 546.698 94.436 548.282 96.044C549.89 97.652 550.694 100.148 550.694 103.532C550.694 106.916 549.89 109.412 548.282 111.02C546.698 112.628 544.286 113.432 541.046 113.432ZM541.046 109.4C542.654 109.4 543.818 108.944 544.538 108.032C545.258 107.096 545.618 105.692 545.618 103.82V103.244C545.618 101.372 545.258 99.98 544.538 99.068C543.818 98.132 542.654 97.664 541.046 97.664C539.438 97.664 538.274 98.132 537.554 99.068C536.858 99.98 536.51 101.372 536.51 103.244V103.82C536.51 105.692 536.858 107.096 537.554 108.032C538.274 108.944 539.438 109.4 541.046 109.4ZM562.19 113.432C559.55 113.432 557.474 112.892 555.962 111.812C554.474 110.708 553.73 109.244 553.73 107.42L553.766 106.988H558.554V107.24C558.578 108.08 558.95 108.692 559.67 109.076C560.414 109.436 561.314 109.616 562.37 109.616C563.354 109.616 564.194 109.484 564.89 109.22C565.586 108.956 565.934 108.524 565.934 107.924C565.934 107.252 565.574 106.748 564.854 106.412C564.158 106.076 563.054 105.74 561.542 105.404C559.982 105.044 558.71 104.684 557.726 104.324C556.742 103.94 555.89 103.352 555.17 102.56C554.45 101.768 554.09 100.712 554.09 99.392C554.09 97.544 554.858 96.128 556.394 95.144C557.954 94.136 559.958 93.632 562.406 93.632C564.686 93.632 566.57 94.1 568.058 95.036C569.546 95.948 570.29 97.196 570.29 98.78L570.254 99.608H565.466V99.392C565.466 98.768 565.166 98.288 564.566 97.952C563.99 97.616 563.21 97.448 562.226 97.448C561.242 97.448 560.462 97.58 559.886 97.844C559.31 98.108 559.022 98.48 559.022 98.96C559.022 99.56 559.346 100.004 559.994 100.292C560.666 100.58 561.734 100.868 563.198 101.156C564.806 101.516 566.114 101.876 567.122 102.236C568.13 102.596 569.006 103.184 569.75 104C570.494 104.816 570.866 105.92 570.866 107.312C570.866 111.392 567.974 113.432 562.19 113.432ZM354.556 136.064H358.768L359.092 138.548H359.344C359.944 137.588 360.748 136.868 361.756 136.388C362.764 135.884 363.88 135.632 365.104 135.632C367.504 135.632 369.364 136.46 370.684 138.116C372.004 139.748 372.664 142.232 372.664 145.568C372.664 148.832 371.992 151.292 370.648 152.948C369.328 154.604 367.564 155.432 365.356 155.432C364.084 155.432 362.956 155.204 361.972 154.748C361.012 154.292 360.256 153.644 359.704 152.804H359.488V161.228H354.556V136.064ZM363.52 151.148C364.984 151.148 366.028 150.716 366.652 149.852C367.276 148.964 367.588 147.632 367.588 145.856V145.208C367.588 143.432 367.276 142.112 366.652 141.248C366.028 140.36 364.984 139.916 363.52 139.916C360.832 139.916 359.488 141.68 359.488 145.208V145.784C359.488 149.36 360.832 151.148 363.52 151.148ZM376.564 136.064H380.776L381.172 139.124H381.424C381.832 138.044 382.36 137.192 383.008 136.568C383.656 135.944 384.508 135.632 385.564 135.632C386.26 135.632 386.884 135.74 387.436 135.956V140.564H386.068C384.46 140.564 383.296 141.008 382.576 141.896C381.856 142.76 381.496 144.08 381.496 145.856V155H376.564V136.064ZM398.98 155.432C395.74 155.432 393.328 154.628 391.744 153.02C390.16 151.412 389.368 148.916 389.368 145.532C389.368 142.148 390.16 139.652 391.744 138.044C393.328 136.436 395.74 135.632 398.98 135.632C402.22 135.632 404.632 136.436 406.216 138.044C407.824 139.652 408.628 142.148 408.628 145.532C408.628 148.916 407.824 151.412 406.216 153.02C404.632 154.628 402.22 155.432 398.98 155.432ZM398.98 151.4C400.588 151.4 401.752 150.944 402.472 150.032C403.192 149.096 403.552 147.692 403.552 145.82V145.244C403.552 143.372 403.192 141.98 402.472 141.068C401.752 140.132 400.588 139.664 398.98 139.664C397.372 139.664 396.208 140.132 395.488 141.068C394.792 141.98 394.444 143.372 394.444 145.244V145.82C394.444 147.692 394.792 149.096 395.488 150.032C396.208 150.944 397.372 151.4 398.98 151.4ZM413.032 140.096H410.332V136.064H413.032V133.904C413.032 132.416 413.428 131.18 414.22 130.196C415.012 129.188 416.32 128.684 418.144 128.684C418.648 128.684 419.2 128.744 419.8 128.864C420.4 128.984 420.904 129.116 421.312 129.26V132.716H419.512C418.48 132.716 417.964 133.232 417.964 134.264V136.064H421.312V140.096H417.964V155H413.032V140.096ZM432.364 155.432C429.316 155.432 427.036 154.628 425.524 153.02C424.036 151.412 423.292 148.916 423.292 145.532C423.292 142.148 424.036 139.652 425.524 138.044C427.036 136.436 429.316 135.632 432.364 135.632C435.172 135.632 437.272 136.448 438.664 138.08C440.056 139.688 440.752 142.172 440.752 145.532V146.684H428.296C428.344 148.364 428.68 149.612 429.304 150.428C429.928 151.22 430.972 151.616 432.436 151.616C433.468 151.616 434.296 151.328 434.92 150.752C435.568 150.176 435.892 149.36 435.892 148.304H440.752C440.752 150.68 439.984 152.468 438.448 153.668C436.912 154.844 434.884 155.432 432.364 155.432ZM435.64 143.408C435.64 140.792 434.548 139.484 432.364 139.484C431.116 139.484 430.168 139.808 429.52 140.456C428.896 141.104 428.512 142.088 428.368 143.408H435.64ZM452.116 155.432C449.476 155.432 447.4 154.892 445.888 153.812C444.4 152.708 443.656 151.244 443.656 149.42L443.692 148.988H448.48V149.24C448.504 150.08 448.876 150.692 449.596 151.076C450.34 151.436 451.24 151.616 452.296 151.616C453.28 151.616 454.12 151.484 454.816 151.22C455.512 150.956 455.86 150.524 455.86 149.924C455.86 149.252 455.5 148.748 454.78 148.412C454.084 148.076 452.98 147.74 451.468 147.404C449.908 147.044 448.636 146.684 447.652 146.324C446.668 145.94 445.816 145.352 445.096 144.56C444.376 143.768 444.016 142.712 444.016 141.392C444.016 139.544 444.784 138.128 446.32 137.144C447.88 136.136 449.884 135.632 452.332 135.632C454.612 135.632 456.496 136.1 457.984 137.036C459.472 137.948 460.216 139.196 460.216 140.78L460.18 141.608H455.392V141.392C455.392 140.768 455.092 140.288 454.492 139.952C453.916 139.616 453.136 139.448 452.152 139.448C451.168 139.448 450.388 139.58 449.812 139.844C449.236 140.108 448.948 140.48 448.948 140.96C448.948 141.56 449.272 142.004 449.92 142.292C450.592 142.58 451.66 142.868 453.124 143.156C454.732 143.516 456.04 143.876 457.048 144.236C458.056 144.596 458.932 145.184 459.676 146C460.42 146.816 460.792 147.92 460.792 149.312C460.792 153.392 457.9 155.432 452.116 155.432ZM472.12 155.432C469.48 155.432 467.404 154.892 465.892 153.812C464.404 152.708 463.66 151.244 463.66 149.42L463.696 148.988H468.484V149.24C468.508 150.08 468.88 150.692 469.6 151.076C470.344 151.436 471.244 151.616 472.3 151.616C473.284 151.616 474.124 151.484 474.82 151.22C475.516 150.956 475.864 150.524 475.864 149.924C475.864 149.252 475.504 148.748 474.784 148.412C474.088 148.076 472.984 147.74 471.472 147.404C469.912 147.044 468.64 146.684 467.656 146.324C466.672 145.94 465.82 145.352 465.1 144.56C464.38 143.768 464.02 142.712 464.02 141.392C464.02 139.544 464.788 138.128 466.324 137.144C467.884 136.136 469.888 135.632 472.336 135.632C474.616 135.632 476.5 136.1 477.988 137.036C479.476 137.948 480.22 139.196 480.22 140.78L480.184 141.608H475.396V141.392C475.396 140.768 475.096 140.288 474.496 139.952C473.92 139.616 473.14 139.448 472.156 139.448C471.172 139.448 470.392 139.58 469.816 139.844C469.24 140.108 468.952 140.48 468.952 140.96C468.952 141.56 469.276 142.004 469.924 142.292C470.596 142.58 471.664 142.868 473.128 143.156C474.736 143.516 476.044 143.876 477.052 144.236C478.06 144.596 478.936 145.184 479.68 146C480.424 146.816 480.796 147.92 480.796 149.312C480.796 153.392 477.904 155.432 472.12 155.432ZM492.988 155.432C489.748 155.432 487.336 154.628 485.752 153.02C484.168 151.412 483.376 148.916 483.376 145.532C483.376 142.148 484.168 139.652 485.752 138.044C487.336 136.436 489.748 135.632 492.988 135.632C496.228 135.632 498.64 136.436 500.224 138.044C501.832 139.652 502.636 142.148 502.636 145.532C502.636 148.916 501.832 151.412 500.224 153.02C498.64 154.628 496.228 155.432 492.988 155.432ZM492.988 151.4C494.596 151.4 495.76 150.944 496.48 150.032C497.2 149.096 497.56 147.692 497.56 145.82V145.244C497.56 143.372 497.2 141.98 496.48 141.068C495.76 140.132 494.596 139.664 492.988 139.664C491.38 139.664 490.216 140.132 489.496 141.068C488.8 141.98 488.452 143.372 488.452 145.244V145.82C488.452 147.692 488.8 149.096 489.496 150.032C490.216 150.944 491.38 151.4 492.988 151.4ZM506.572 136.064H510.784L511.18 139.124H511.432C511.84 138.044 512.368 137.192 513.016 136.568C513.664 135.944 514.516 135.632 515.572 135.632C516.268 135.632 516.892 135.74 517.444 135.956V140.564H516.076C514.468 140.564 513.304 141.008 512.584 141.896C511.864 142.76 511.504 144.08 511.504 145.856V155H506.572V136.064ZM528.376 155.432C525.328 155.432 523.048 154.628 521.536 153.02C520.048 151.412 519.304 148.916 519.304 145.532C519.304 142.148 520.048 139.652 521.536 138.044C523.048 136.436 525.328 135.632 528.376 135.632C531.184 135.632 533.284 136.448 534.676 138.08C536.068 139.688 536.764 142.172 536.764 145.532V146.684H524.308C524.356 148.364 524.692 149.612 525.316 150.428C525.94 151.22 526.984 151.616 528.448 151.616C529.48 151.616 530.308 151.328 530.932 150.752C531.58 150.176 531.904 149.36 531.904 148.304H536.764C536.764 150.68 535.996 152.468 534.46 153.668C532.924 154.844 530.896 155.432 528.376 155.432ZM531.652 143.408C531.652 140.792 530.56 139.484 528.376 139.484C527.128 139.484 526.18 139.808 525.532 140.456C524.908 141.104 524.524 142.088 524.38 143.408H531.652ZM548.128 155.432C545.488 155.432 543.412 154.892 541.9 153.812C540.412 152.708 539.668 151.244 539.668 149.42L539.704 148.988H544.492V149.24C544.516 150.08 544.888 150.692 545.608 151.076C546.352 151.436 547.252 151.616 548.308 151.616C549.292 151.616 550.132 151.484 550.828 151.22C551.524 150.956 551.872 150.524 551.872 149.924C551.872 149.252 551.512 148.748 550.792 148.412C550.096 148.076 548.992 147.74 547.48 147.404C545.92 147.044 544.648 146.684 543.664 146.324C542.68 145.94 541.828 145.352 541.108 144.56C540.388 143.768 540.028 142.712 540.028 141.392C540.028 139.544 540.796 138.128 542.332 137.144C543.892 136.136 545.896 135.632 548.344 135.632C550.624 135.632 552.508 136.1 553.996 137.036C555.484 137.948 556.228 139.196 556.228 140.78L556.192 141.608H551.404V141.392C551.404 140.768 551.104 140.288 550.504 139.952C549.928 139.616 549.148 139.448 548.164 139.448C547.18 139.448 546.4 139.58 545.824 139.844C545.248 140.108 544.96 140.48 544.96 140.96C544.96 141.56 545.284 142.004 545.932 142.292C546.604 142.58 547.672 142.868 549.136 143.156C550.744 143.516 552.052 143.876 553.06 144.236C554.068 144.596 554.944 145.184 555.688 146C556.432 146.816 556.804 147.92 556.804 149.312C556.804 153.392 553.912 155.432 548.128 155.432ZM576.927 155.432C574.527 155.432 572.667 154.616 571.347 152.984C570.027 151.328 569.367 148.832 569.367 145.496C569.367 142.232 570.027 139.772 571.347 138.116C572.691 136.46 574.467 135.632 576.675 135.632C577.947 135.632 579.063 135.86 580.023 136.316C581.007 136.772 581.775 137.42 582.327 138.26H582.543V128.972H587.475V155H583.263L582.939 152.516H582.687C582.087 153.476 581.283 154.208 580.275 154.712C579.267 155.192 578.151 155.432 576.927 155.432ZM578.511 151.148C581.199 151.148 582.543 149.384 582.543 145.856V145.28C582.543 141.704 581.199 139.916 578.511 139.916C577.047 139.916 576.003 140.36 575.379 141.248C574.755 142.112 574.443 143.432 574.443 145.208V145.856C574.443 147.632 574.755 148.964 575.379 149.852C576.003 150.716 577.047 151.148 578.511 151.148ZM592.563 128.972H597.495V133.652H592.563V128.972ZM592.563 136.064H597.495V155H592.563V136.064ZM610.179 155.432C607.539 155.432 605.463 154.892 603.951 153.812C602.463 152.708 601.719 151.244 601.719 149.42L601.755 148.988H606.543V149.24C606.567 150.08 606.939 150.692 607.659 151.076C608.403 151.436 609.303 151.616 610.359 151.616C611.343 151.616 612.183 151.484 612.879 151.22C613.575 150.956 613.923 150.524 613.923 149.924C613.923 149.252 613.563 148.748 612.843 148.412C612.147 148.076 611.043 147.74 609.531 147.404C607.971 147.044 606.699 146.684 605.715 146.324C604.731 145.94 603.879 145.352 603.159 144.56C602.439 143.768 602.079 142.712 602.079 141.392C602.079 139.544 602.847 138.128 604.383 137.144C605.943 136.136 607.947 135.632 610.395 135.632C612.675 135.632 614.559 136.1 616.047 137.036C617.535 137.948 618.279 139.196 618.279 140.78L618.242 141.608H613.455V141.392C613.455 140.768 613.155 140.288 612.555 139.952C611.979 139.616 611.199 139.448 610.215 139.448C609.231 139.448 608.451 139.58 607.875 139.844C607.299 140.108 607.011 140.48 607.011 140.96C607.011 141.56 607.335 142.004 607.983 142.292C608.655 142.58 609.723 142.868 611.187 143.156C612.795 143.516 614.103 143.876 615.111 144.236C616.119 144.596 616.995 145.184 617.739 146C618.483 146.816 618.855 147.92 618.855 149.312C618.855 153.392 615.963 155.432 610.179 155.432ZM622.622 136.064H626.834L627.158 138.548H627.41C628.01 137.588 628.814 136.868 629.822 136.388C630.83 135.884 631.946 135.632 633.17 135.632C635.57 135.632 637.43 136.46 638.75 138.116C640.07 139.748 640.73 142.232 640.73 145.568C640.73 148.832 640.058 151.292 638.714 152.948C637.394 154.604 635.63 155.432 633.422 155.432C632.15 155.432 631.022 155.204 630.038 154.748C629.078 154.292 628.322 153.644 627.77 152.804H627.554V161.228H622.622V136.064ZM631.586 151.148C633.05 151.148 634.094 150.716 634.718 149.852C635.342 148.964 635.654 147.632 635.654 145.856V145.208C635.654 143.432 635.342 142.112 634.718 141.248C634.094 140.36 633.05 139.916 631.586 139.916C628.898 139.916 627.554 141.68 627.554 145.208V145.784C627.554 149.36 628.898 151.148 631.586 151.148ZM653.054 155.432C649.814 155.432 647.402 154.628 645.818 153.02C644.234 151.412 643.442 148.916 643.442 145.532C643.442 142.148 644.234 139.652 645.818 138.044C647.402 136.436 649.814 135.632 653.054 135.632C656.294 135.632 658.706 136.436 660.29 138.044C661.898 139.652 662.702 142.148 662.702 145.532C662.702 148.916 661.898 151.412 660.29 153.02C658.706 154.628 656.294 155.432 653.054 155.432ZM653.054 151.4C654.662 151.4 655.826 150.944 656.546 150.032C657.266 149.096 657.626 147.692 657.626 145.82V145.244C657.626 143.372 657.266 141.98 656.546 141.068C655.826 140.132 654.662 139.664 653.054 139.664C651.446 139.664 650.282 140.132 649.562 141.068C648.866 141.98 648.518 143.372 648.518 145.244V145.82C648.518 147.692 648.866 149.096 649.562 150.032C650.282 150.944 651.446 151.4 653.054 151.4ZM666.638 136.064H670.85L671.21 138.548H671.462C672.998 136.604 674.966 135.632 677.366 135.632C679.31 135.632 680.834 136.16 681.938 137.216C683.066 138.272 683.63 139.964 683.63 142.292V155H678.698V143.336C678.698 142.16 678.422 141.308 677.87 140.78C677.318 140.252 676.502 139.988 675.422 139.988C674.318 139.988 673.394 140.384 672.65 141.176C671.93 141.944 671.57 142.904 671.57 144.056V155H666.638V136.064ZM688.61 136.064H693.542V155H688.61V136.064ZM692.066 128.972H696.854L696.89 129.08L693.002 133.724H689.222L692.066 128.972ZM696.433 136.064H701.581L704.533 144.2C704.869 145.112 705.397 147.008 706.117 149.888H706.297C706.969 147.176 707.497 145.28 707.881 144.2L710.797 136.064H715.801L708.709 155H703.489L696.433 136.064ZM726.481 155.432C723.433 155.432 721.153 154.628 719.641 153.02C718.153 151.412 717.409 148.916 717.409 145.532C717.409 142.148 718.153 139.652 719.641 138.044C721.153 136.436 723.433 135.632 726.481 135.632C729.289 135.632 731.389 136.448 732.781 138.08C734.173 139.688 734.869 142.172 734.869 145.532V146.684H722.413C722.461 148.364 722.797 149.612 723.421 150.428C724.045 151.22 725.089 151.616 726.553 151.616C727.585 151.616 728.413 151.328 729.037 150.752C729.685 150.176 730.009 149.36 730.009 148.304H734.869C734.869 150.68 734.101 152.468 732.565 153.668C731.029 154.844 729.001 155.432 726.481 155.432ZM729.757 143.408C729.757 140.792 728.665 139.484 726.481 139.484C725.233 139.484 724.285 139.808 723.637 140.456C723.013 141.104 722.629 142.088 722.485 143.408H729.757ZM738.637 128.972H743.569V133.652H738.637V128.972ZM738.637 136.064H743.569V155H738.637V136.064ZM756.253 155.432C753.613 155.432 751.537 154.892 750.025 153.812C748.537 152.708 747.793 151.244 747.793 149.42L747.829 148.988H752.617V149.24C752.641 150.08 753.013 150.692 753.733 151.076C754.477 151.436 755.377 151.616 756.433 151.616C757.417 151.616 758.257 151.484 758.953 151.22C759.649 150.956 759.997 150.524 759.997 149.924C759.997 149.252 759.637 148.748 758.917 148.412C758.221 148.076 757.117 147.74 755.605 147.404C754.045 147.044 752.773 146.684 751.789 146.324C750.805 145.94 749.953 145.352 749.233 144.56C748.513 143.768 748.153 142.712 748.153 141.392C748.153 139.544 748.921 138.128 750.457 137.144C752.017 136.136 754.021 135.632 756.469 135.632C758.749 135.632 760.633 136.1 762.121 137.036C763.609 137.948 764.353 139.196 764.353 140.78L764.317 141.608H759.529V141.392C759.529 140.768 759.229 140.288 758.629 139.952C758.053 139.616 757.273 139.448 756.289 139.448C755.305 139.448 754.525 139.58 753.949 139.844C753.373 140.108 753.085 140.48 753.085 140.96C753.085 141.56 753.409 142.004 754.057 142.292C754.729 142.58 755.797 142.868 757.261 143.156C758.869 143.516 760.177 143.876 761.185 144.236C762.193 144.596 763.069 145.184 763.813 146C764.557 146.816 764.929 147.92 764.929 149.312C764.929 153.392 762.037 155.432 756.253 155.432ZM768.661 150.068H773.629V155H768.661V150.068Z" fill="white"/>
<path d="M606.036 427.832V436.696L600.18 427.832H598.724V439H600.18V430.12L606.036 439H607.492V427.832H606.036ZM613.702 431.32C615.206 431.32 616.486 432.264 616.47 433.976H610.934C611.094 432.264 612.278 431.32 613.702 431.32ZM617.798 436.296H616.23C615.91 437.24 615.078 437.912 613.766 437.912C612.278 437.912 611.03 436.936 610.918 435.16H617.926C617.958 434.856 617.974 434.6 617.974 434.28C617.974 431.88 616.31 430.088 613.766 430.088C611.206 430.088 609.43 431.832 609.43 434.6C609.43 437.384 611.27 439.144 613.766 439.144C615.942 439.144 617.35 437.896 617.798 436.296ZM626.312 439H627.752V433.832C627.752 431.32 626.2 430.072 624.168 430.072C622.984 430.072 621.928 430.568 621.352 431.48V430.232H619.896V439H621.352V434.152C621.352 432.264 622.376 431.336 623.864 431.336C625.336 431.336 626.312 432.248 626.312 434.04V439ZM630.13 439H631.586V434.152C631.586 432.264 632.61 431.336 634.098 431.336C635.57 431.336 636.546 432.248 636.546 434.04V439H637.986V433.832C637.986 431.32 636.434 430.072 634.482 430.072C633.25 430.072 632.162 430.568 631.586 431.496V427.16H630.13V439ZM648.141 430.232H646.685V435.048C646.685 436.936 645.677 437.864 644.173 437.864C642.701 437.864 641.725 436.952 641.725 435.176V430.232H640.285V435.368C640.285 437.88 641.869 439.128 643.885 439.128C645.053 439.128 646.125 438.616 646.685 437.704V439H648.141V430.232ZM663.255 439H664.695V433.832C664.695 431.32 663.143 430.072 661.143 430.072C659.799 430.072 658.551 430.76 658.039 432.024C657.463 430.712 656.263 430.072 654.823 430.072C653.671 430.072 652.631 430.568 652.055 431.496V430.232H650.599V439H652.055V434.168C652.055 432.28 653.063 431.336 654.535 431.336C655.975 431.336 656.935 432.248 656.935 434.04V439H658.375V434.168C658.375 432.28 659.383 431.336 660.855 431.336C662.295 431.336 663.255 432.248 663.255 434.04V439ZM672.805 431.848V430.232H671.349V443.16H672.805V437.384C673.349 438.28 674.485 439.144 676.085 439.144C678.437 439.144 680.245 437.304 680.245 434.584C680.245 431.848 678.437 430.088 676.085 430.088C674.485 430.088 673.333 430.92 672.805 431.848ZM678.757 434.584C678.757 436.648 677.397 437.864 675.781 437.864C674.197 437.864 672.805 436.664 672.805 434.6C672.805 432.568 674.197 431.352 675.781 431.352C677.397 431.352 678.757 432.52 678.757 434.584ZM683.618 434.232C683.618 432.2 684.674 431.576 686.066 431.576H686.45V430.072C685.058 430.072 684.114 430.68 683.618 431.656V430.232H682.162V439H683.618V434.232ZM696.45 434.6C696.45 431.832 694.514 430.088 692.018 430.088C689.538 430.088 687.586 431.832 687.586 434.6C687.586 437.384 689.474 439.144 691.954 439.144C694.45 439.144 696.45 437.384 696.45 434.6ZM689.074 434.6C689.074 432.392 690.466 431.352 692.002 431.352C693.506 431.352 694.962 432.392 694.962 434.6C694.962 436.824 693.474 437.864 691.954 437.864C690.434 437.864 689.074 436.824 689.074 434.6ZM698.637 439H700.093V431.432H701.933V430.232H700.093V429.608C700.093 428.472 700.525 427.992 701.837 427.992V426.776C699.597 426.776 698.637 427.656 698.637 429.608V430.232H697.501V431.432H698.637V439ZM707.358 431.32C708.862 431.32 710.142 432.264 710.126 433.976H704.59C704.75 432.264 705.934 431.32 707.358 431.32ZM711.454 436.296H709.886C709.566 437.24 708.734 437.912 707.422 437.912C705.934 437.912 704.686 436.936 704.574 435.16H711.582C711.614 434.856 711.63 434.6 711.63 434.28C711.63 431.88 709.966 430.088 707.422 430.088C704.862 430.088 703.086 431.832 703.086 434.6C703.086 437.384 704.926 439.144 707.422 439.144C709.598 439.144 711.006 437.896 711.454 436.296ZM719.856 436.616C719.792 433.48 714.704 434.616 714.704 432.536C714.704 431.832 715.344 431.32 716.416 431.32C717.584 431.32 718.256 431.96 718.32 432.84H719.776C719.68 431.128 718.4 430.088 716.464 430.088C714.512 430.088 713.248 431.192 713.248 432.536C713.248 435.8 718.432 434.664 718.432 436.616C718.432 437.336 717.792 437.912 716.64 437.912C715.408 437.912 714.656 437.272 714.576 436.424H713.072C713.168 438.024 714.608 439.144 716.656 439.144C718.592 439.144 719.856 438.056 719.856 436.616ZM728.216 436.616C728.152 433.48 723.064 434.616 723.064 432.536C723.064 431.832 723.704 431.32 724.776 431.32C725.944 431.32 726.616 431.96 726.68 432.84H728.136C728.04 431.128 726.76 430.088 724.824 430.088C722.872 430.088 721.608 431.192 721.608 432.536C721.608 435.8 726.792 434.664 726.792 436.616C726.792 437.336 726.152 437.912 725 437.912C723.768 437.912 723.016 437.272 722.936 436.424H721.432C721.528 438.024 722.968 439.144 725.016 439.144C726.952 439.144 728.216 438.056 728.216 436.616ZM738.591 434.6C738.591 431.832 736.655 430.088 734.159 430.088C731.679 430.088 729.727 431.832 729.727 434.6C729.727 437.384 731.615 439.144 734.095 439.144C736.591 439.144 738.591 437.384 738.591 434.6ZM731.215 434.6C731.215 432.392 732.607 431.352 734.143 431.352C735.647 431.352 737.103 432.392 737.103 434.6C737.103 436.824 735.615 437.864 734.095 437.864C732.575 437.864 731.215 436.824 731.215 434.6ZM741.961 434.232C741.961 432.2 743.017 431.576 744.409 431.576H744.793V430.072C743.401 430.072 742.457 430.68 741.961 431.656V430.232H740.505V439H741.961V434.232ZM754.468 431.32C755.972 431.32 757.252 432.264 757.236 433.976H751.7C751.86 432.264 753.044 431.32 754.468 431.32ZM758.564 436.296H756.996C756.676 437.24 755.844 437.912 754.532 437.912C753.044 437.912 751.796 436.936 751.684 435.16H758.692C758.724 434.856 758.74 434.6 758.74 434.28C758.74 431.88 757.076 430.088 754.532 430.088C751.972 430.088 750.196 431.832 750.196 434.6C750.196 437.384 752.036 439.144 754.532 439.144C756.708 439.144 758.116 437.896 758.564 436.296ZM767.078 439H768.518V433.832C768.518 431.32 766.966 430.072 764.934 430.072C763.75 430.072 762.694 430.568 762.118 431.48V430.232H760.662V439H762.118V434.152C762.118 432.264 763.142 431.336 764.63 431.336C766.102 431.336 767.078 432.248 767.078 434.04V439ZM770.352 434.6C770.352 437.384 772.128 439.144 774.624 439.144C776.8 439.144 778.224 437.928 778.672 436.184H777.104C776.784 437.288 775.92 437.912 774.624 437.912C773.024 437.912 771.84 436.776 771.84 434.6C771.84 432.456 773.024 431.32 774.624 431.32C775.92 431.32 776.8 431.992 777.104 433.048H778.672C778.224 431.208 776.8 430.088 774.624 430.088C772.128 430.088 770.352 431.848 770.352 434.6ZM788.935 434.6C788.935 431.832 786.999 430.088 784.503 430.088C782.023 430.088 780.071 431.832 780.071 434.6C780.071 437.384 781.959 439.144 784.439 439.144C786.935 439.144 788.935 437.384 788.935 434.6ZM781.559 434.6C781.559 432.392 782.951 431.352 784.487 431.352C785.991 431.352 787.447 432.392 787.447 434.6C787.447 436.824 785.959 437.864 784.439 437.864C782.919 437.864 781.559 436.824 781.559 434.6ZM797.265 439H798.705V433.832C798.705 431.32 797.153 430.072 795.121 430.072C793.937 430.072 792.881 430.568 792.305 431.48V430.232H790.849V439H792.305V434.152C792.305 432.264 793.329 431.336 794.817 431.336C796.289 431.336 797.265 432.248 797.265 434.04V439ZM801.404 436.6C801.404 438.36 802.284 439 803.836 439H805.148V437.768H804.076C803.18 437.768 802.86 437.464 802.86 436.6V431.432H805.148V430.232H802.86V428.024H801.404V430.232H800.268V431.432H801.404V436.6ZM808.368 434.232C808.368 432.2 809.424 431.576 810.816 431.576H811.2V430.072C809.808 430.072 808.864 430.68 808.368 431.656V430.232H806.912V439H808.368V434.232ZM812.336 434.584C812.336 437.304 814.144 439.144 816.48 439.144C818.096 439.144 819.232 438.312 819.76 437.368V439H821.232V430.232H819.76V431.832C819.248 430.92 818.128 430.088 816.496 430.088C814.144 430.088 812.336 431.848 812.336 434.584ZM819.76 434.6C819.76 436.664 818.384 437.864 816.784 437.864C815.184 437.864 813.824 436.648 813.824 434.584C813.824 432.52 815.184 431.352 816.784 431.352C818.384 431.352 819.76 432.568 819.76 434.6ZM823.149 434.584C823.149 437.304 824.957 439.144 827.309 439.144C828.909 439.144 830.045 438.328 830.573 437.352V439H832.045V427.16H830.573V431.8C829.965 430.792 828.701 430.088 827.325 430.088C824.957 430.088 823.149 431.848 823.149 434.584ZM830.573 434.6C830.573 436.664 829.197 437.864 827.597 437.864C825.997 437.864 824.637 436.648 824.637 434.584C824.637 432.52 825.997 431.352 827.597 431.352C829.197 431.352 830.573 432.568 830.573 434.6ZM842.825 434.6C842.825 431.832 840.889 430.088 838.393 430.088C835.913 430.088 833.961 431.832 833.961 434.6C833.961 437.384 835.849 439.144 838.329 439.144C840.825 439.144 842.825 437.384 842.825 434.6ZM835.449 434.6C835.449 432.392 836.841 431.352 838.377 431.352C839.881 431.352 841.337 432.392 841.337 434.6C841.337 436.824 839.849 437.864 838.329 437.864C836.809 437.864 835.449 436.824 835.449 434.6ZM645.696 460.6C645.696 463.384 647.472 465.144 649.968 465.144C652.144 465.144 653.568 463.928 654.016 462.184H652.448C652.128 463.288 651.264 463.912 649.968 463.912C648.368 463.912 647.184 462.776 647.184 460.6C647.184 458.456 648.368 457.32 649.968 457.32C651.264 457.32 652.144 457.992 652.448 459.048H654.016C653.568 457.208 652.144 456.088 649.968 456.088C647.472 456.088 645.696 457.848 645.696 460.6ZM664.279 460.6C664.279 457.832 662.343 456.088 659.847 456.088C657.367 456.088 655.415 457.832 655.415 460.6C655.415 463.384 657.303 465.144 659.783 465.144C662.279 465.144 664.279 463.384 664.279 460.6ZM656.903 460.6C656.903 458.392 658.295 457.352 659.831 457.352C661.335 457.352 662.791 458.392 662.791 460.6C662.791 462.824 661.303 463.864 659.783 463.864C658.263 463.864 656.903 462.824 656.903 460.6ZM678.849 465H680.289V459.832C680.289 457.32 678.737 456.072 676.737 456.072C675.393 456.072 674.145 456.76 673.633 458.024C673.057 456.712 671.857 456.072 670.417 456.072C669.265 456.072 668.225 456.568 667.649 457.496V456.232H666.193V465H667.649V460.168C667.649 458.28 668.657 457.336 670.129 457.336C671.569 457.336 672.529 458.248 672.529 460.04V465H673.969V460.168C673.969 458.28 674.977 457.336 676.449 457.336C677.889 457.336 678.849 458.248 678.849 460.04V465ZM693.247 462.616C693.183 459.48 688.095 460.616 688.095 458.536C688.095 457.832 688.735 457.32 689.807 457.32C690.975 457.32 691.647 457.96 691.711 458.84H693.167C693.071 457.128 691.791 456.088 689.855 456.088C687.903 456.088 686.639 457.192 686.639 458.536C686.639 461.8 691.823 460.664 691.823 462.616C691.823 463.336 691.183 463.912 690.031 463.912C688.799 463.912 688.047 463.272 687.967 462.424H686.463C686.559 464.024 687.999 465.144 690.047 465.144C691.983 465.144 693.247 464.056 693.247 462.616ZM703.078 456.232H701.622V461.048C701.622 462.936 700.614 463.864 699.11 463.864C697.638 463.864 696.662 462.952 696.662 461.176V456.232H695.222V461.368C695.222 463.88 696.806 465.128 698.822 465.128C699.99 465.128 701.062 464.616 701.622 463.704V465H703.078V456.232ZM704.993 460.584C704.993 463.304 706.801 465.144 709.137 465.144C710.753 465.144 711.889 464.312 712.417 463.368V465H713.889V456.232H712.417V457.832C711.905 456.92 710.785 456.088 709.153 456.088C706.801 456.088 704.993 457.848 704.993 460.584ZM712.417 460.6C712.417 462.664 711.041 463.864 709.441 463.864C707.841 463.864 706.481 462.648 706.481 460.584C706.481 458.52 707.841 457.352 709.441 457.352C711.041 457.352 712.417 458.568 712.417 460.6ZM722.071 457.848V456.232H720.615V469.16H722.071V463.384C722.615 464.28 723.751 465.144 725.351 465.144C727.703 465.144 729.511 463.304 729.511 460.584C729.511 457.848 727.703 456.088 725.351 456.088C723.751 456.088 722.599 456.92 722.071 457.848ZM728.023 460.584C728.023 462.648 726.663 463.864 725.047 463.864C723.463 463.864 722.071 462.664 722.071 460.6C722.071 458.568 723.463 457.352 725.047 457.352C726.663 457.352 728.023 458.52 728.023 460.584ZM735.155 457.32C736.659 457.32 737.939 458.264 737.923 459.976H732.387C732.547 458.264 733.731 457.32 735.155 457.32ZM739.251 462.296H737.683C737.363 463.24 736.531 463.912 735.219 463.912C733.731 463.912 732.483 462.936 732.371 461.16H739.379C739.411 460.856 739.427 460.6 739.427 460.28C739.427 457.88 737.763 456.088 735.219 456.088C732.659 456.088 730.883 457.832 730.883 460.6C730.883 463.384 732.723 465.144 735.219 465.144C737.395 465.144 738.803 463.896 739.251 462.296ZM747.653 462.616C747.589 459.48 742.501 460.616 742.501 458.536C742.501 457.832 743.141 457.32 744.213 457.32C745.381 457.32 746.053 457.96 746.117 458.84H747.573C747.477 457.128 746.197 456.088 744.261 456.088C742.309 456.088 741.045 457.192 741.045 458.536C741.045 461.8 746.229 460.664 746.229 462.616C746.229 463.336 745.589 463.912 744.437 463.912C743.205 463.912 742.453 463.272 742.373 462.424H740.869C740.965 464.024 742.405 465.144 744.453 465.144C746.389 465.144 747.653 464.056 747.653 462.616ZM749.165 460.584C749.165 463.304 750.973 465.144 753.293 465.144C754.925 465.144 756.093 464.28 756.589 463.384V469.16H758.061V456.232H756.589V457.832C756.093 456.92 754.941 456.088 753.341 456.088C750.973 456.088 749.165 457.848 749.165 460.584ZM756.589 460.6C756.589 462.664 755.213 463.864 753.613 463.864C752.013 463.864 750.653 462.648 750.653 460.584C750.653 458.52 752.013 457.352 753.613 457.352C755.213 457.352 756.589 458.568 756.589 460.6ZM768.297 456.232H766.841V461.048C766.841 462.936 765.833 463.864 764.329 463.864C762.857 463.864 761.881 462.952 761.881 461.176V456.232H760.441V461.368C760.441 463.88 762.025 465.128 764.041 465.128C765.209 465.128 766.281 464.616 766.841 463.704V465H768.297V456.232ZM770.755 465H772.211V456.232H770.755V465ZM771.507 454.808C772.035 454.808 772.467 454.376 772.467 453.816C772.467 453.256 772.035 452.824 771.507 452.824C770.947 452.824 770.515 453.256 770.515 453.816C770.515 454.376 770.947 454.808 771.507 454.808ZM780.997 462.616C780.933 459.48 775.845 460.616 775.845 458.536C775.845 457.832 776.485 457.32 777.557 457.32C778.725 457.32 779.397 457.96 779.461 458.84H780.917C780.821 457.128 779.541 456.088 777.605 456.088C775.653 456.088 774.389 457.192 774.389 458.536C774.389 461.8 779.573 460.664 779.573 462.616C779.573 463.336 778.933 463.912 777.781 463.912C776.549 463.912 775.797 463.272 775.717 462.424H774.213C774.309 464.024 775.749 465.144 777.797 465.144C779.733 465.144 780.997 464.056 780.997 462.616ZM782.508 460.584C782.508 463.304 784.316 465.144 786.652 465.144C788.268 465.144 789.404 464.312 789.932 463.368V465H791.404V456.232H789.932V457.832C789.42 456.92 788.3 456.088 786.668 456.088C784.316 456.088 782.508 457.848 782.508 460.584ZM789.932 460.6C789.932 462.664 788.556 463.864 786.956 463.864C785.356 463.864 783.996 462.648 783.996 460.584C783.996 458.52 785.356 457.352 786.956 457.352C788.556 457.352 789.932 458.568 789.932 460.6ZM795.289 464.104C795.289 463.544 794.857 463.112 794.329 463.112C793.769 463.112 793.337 463.544 793.337 464.104C793.337 464.664 793.769 465.096 794.329 465.096C794.857 465.096 795.289 464.664 795.289 464.104Z" fill="#9C98A6"/>
<rect x="603.5" y="244.5" width="234" height="55" rx="7.5" fill="#FAFAFC" stroke="#E6E6F0"/>
<rect x="352.5" y="244.5" width="234" height="55" rx="7.5" fill="#FAFAFC" stroke="#E6E6F0"/>
<rect x="854.5" y="244.5" width="234" height="55" rx="7.5" fill="#FAFAFC" stroke="#E6E6F0"/>
<path d="M635.48 274.96C635.48 270.832 629.464 272.624 629.464 269.744C629.464 268.544 630.408 267.92 631.608 267.952C632.968 267.968 633.672 268.816 633.768 269.568H635.368C635.192 267.872 633.8 266.704 631.672 266.704C629.464 266.704 627.976 267.952 627.976 269.792C627.976 273.936 634.008 272.016 634.008 275.024C634.008 276.08 633.176 276.88 631.768 276.88C630.216 276.88 629.56 275.952 629.464 275.024H627.912C627.944 276.864 629.528 278.112 631.768 278.112C634.184 278.112 635.48 276.544 635.48 274.96ZM641.351 270.32C642.855 270.32 644.135 271.264 644.119 272.976H638.583C638.743 271.264 639.927 270.32 641.351 270.32ZM645.447 275.296H643.879C643.559 276.24 642.727 276.912 641.415 276.912C639.927 276.912 638.679 275.936 638.567 274.16H645.575C645.607 273.856 645.623 273.6 645.623 273.28C645.623 270.88 643.959 269.088 641.415 269.088C638.855 269.088 637.079 270.832 637.079 273.6C637.079 276.384 638.919 278.144 641.415 278.144C643.591 278.144 644.999 276.896 645.447 275.296ZM647.001 273.584C647.001 276.304 648.809 278.144 651.161 278.144C652.761 278.144 653.897 277.296 654.425 276.352V278.192C654.425 280.064 653.257 281.056 651.705 281.056C650.265 281.056 649.225 280.336 648.905 279.28H647.465C647.753 281.152 649.401 282.32 651.705 282.32C654.281 282.32 655.897 280.608 655.897 278.192V269.232H654.425V270.832C653.913 269.888 652.761 269.088 651.161 269.088C648.809 269.088 647.001 270.848 647.001 273.584ZM654.425 273.6C654.425 275.664 653.049 276.864 651.449 276.864C649.849 276.864 648.489 275.648 648.489 273.584C648.489 271.52 649.849 270.352 651.449 270.352C653.049 270.352 654.425 271.568 654.425 273.6ZM666.133 269.232H664.677V274.048C664.677 275.936 663.669 276.864 662.165 276.864C660.693 276.864 659.717 275.952 659.717 274.176V269.232H658.277V274.368C658.277 276.88 659.861 278.128 661.877 278.128C663.045 278.128 664.117 277.616 664.677 276.704V278H666.133V269.232ZM675.007 278H676.447V272.832C676.447 270.32 674.895 269.072 672.863 269.072C671.679 269.072 670.623 269.568 670.047 270.48V269.232H668.591V278H670.047V273.152C670.047 271.264 671.071 270.336 672.559 270.336C674.031 270.336 675.007 271.248 675.007 273.04V278ZM678.282 273.584C678.282 276.304 680.09 278.144 682.442 278.144C684.042 278.144 685.178 277.328 685.706 276.352V278H687.178V266.16H685.706V270.8C685.098 269.792 683.834 269.088 682.458 269.088C680.09 269.088 678.282 270.848 678.282 273.584ZM685.706 273.6C685.706 275.664 684.33 276.864 682.73 276.864C681.13 276.864 679.77 275.648 679.77 273.584C679.77 271.52 681.13 270.352 682.73 270.352C684.33 270.352 685.706 271.568 685.706 273.6ZM689.094 273.584C689.094 276.304 690.902 278.144 693.238 278.144C694.854 278.144 695.99 277.312 696.518 276.368V278H697.99V269.232H696.518V270.832C696.006 269.92 694.886 269.088 693.254 269.088C690.902 269.088 689.094 270.848 689.094 273.584ZM696.518 273.6C696.518 275.664 695.142 276.864 693.542 276.864C691.942 276.864 690.582 275.648 690.582 273.584C690.582 271.52 691.942 270.352 693.542 270.352C695.142 270.352 696.518 271.568 696.518 273.6Z" fill="#6A6180"/>
<path d="M383.568 274.864C383.568 276.08 382.704 276.8 381.264 276.8H378.688V272.864H381.216C382.64 272.864 383.568 273.632 383.568 274.864ZM383.28 269.856C383.28 270.992 382.496 271.664 381.136 271.664H378.688V268.048H381.104C382.528 268.048 383.28 268.752 383.28 269.856ZM385.024 275.008C385.024 273.632 384.032 272.464 382.816 272.256C383.888 271.904 384.768 271.088 384.768 269.68C384.768 268.128 383.584 266.848 381.232 266.848H377.232V278H381.392C383.696 278 385.024 276.688 385.024 275.008ZM387.045 278H388.501V269.232H387.045V278ZM387.797 267.808C388.325 267.808 388.757 267.376 388.757 266.816C388.757 266.256 388.325 265.824 387.797 265.824C387.237 265.824 386.805 266.256 386.805 266.816C386.805 267.376 387.237 267.808 387.797 267.808ZM399.302 273.6C399.302 270.832 397.366 269.088 394.87 269.088C392.39 269.088 390.438 270.832 390.438 273.6C390.438 276.384 392.326 278.144 394.806 278.144C397.302 278.144 399.302 276.384 399.302 273.6ZM391.926 273.6C391.926 271.392 393.318 270.352 394.854 270.352C396.358 270.352 397.814 271.392 397.814 273.6C397.814 275.824 396.326 276.864 394.806 276.864C393.286 276.864 391.926 275.824 391.926 273.6ZM401.216 278H402.672V266.16H401.216V278ZM413.474 273.6C413.474 270.832 411.538 269.088 409.042 269.088C406.562 269.088 404.61 270.832 404.61 273.6C404.61 276.384 406.498 278.144 408.978 278.144C411.474 278.144 413.474 276.384 413.474 273.6ZM406.098 273.6C406.098 271.392 407.49 270.352 409.026 270.352C410.53 270.352 411.986 271.392 411.986 273.6C411.986 275.824 410.498 276.864 408.978 276.864C407.458 276.864 406.098 275.824 406.098 273.6ZM414.844 273.584C414.844 276.304 416.652 278.144 419.004 278.144C420.604 278.144 421.74 277.296 422.268 276.352V278.192C422.268 280.064 421.1 281.056 419.548 281.056C418.108 281.056 417.068 280.336 416.748 279.28H415.308C415.596 281.152 417.244 282.32 419.548 282.32C422.124 282.32 423.74 280.608 423.74 278.192V269.232H422.268V270.832C421.756 269.888 420.604 269.088 419.004 269.088C416.652 269.088 414.844 270.848 414.844 273.584ZM422.268 273.6C422.268 275.664 420.892 276.864 419.292 276.864C417.692 276.864 416.332 275.648 416.332 273.584C416.332 271.52 417.692 270.352 419.292 270.352C420.892 270.352 422.268 271.568 422.268 273.6ZM426.201 278H427.657V269.232H426.201V278ZM426.953 267.808C427.481 267.808 427.913 267.376 427.913 266.816C427.913 266.256 427.481 265.824 426.953 265.824C426.393 265.824 425.961 266.256 425.961 266.816C425.961 267.376 426.393 267.808 426.953 267.808ZM429.594 273.584C429.594 276.304 431.402 278.144 433.738 278.144C435.354 278.144 436.49 277.312 437.018 276.368V278H438.49V269.232H437.018V270.832C436.506 269.92 435.386 269.088 433.754 269.088C431.402 269.088 429.594 270.848 429.594 273.584ZM437.018 273.6C437.018 275.664 435.642 276.864 434.042 276.864C432.442 276.864 431.082 275.648 431.082 273.584C431.082 271.52 432.442 270.352 434.042 270.352C435.642 270.352 437.018 271.568 437.018 273.6Z" fill="#6A6180"/>
<path d="M881.104 271.984C879.808 272.368 878.96 273.424 878.96 274.88C878.96 276.976 880.608 278.32 883.04 278.32C885.488 278.32 887.152 276.976 887.152 274.88C887.152 273.44 886.304 272.384 884.992 271.984C886.128 271.536 886.848 270.576 886.848 269.328C886.848 267.648 885.552 266.256 883.04 266.256C880.528 266.256 879.248 267.632 879.248 269.328C879.248 270.624 879.92 271.52 881.104 271.984ZM883.04 271.504C881.632 271.504 880.656 270.72 880.656 269.52C880.656 268.16 881.616 267.472 883.04 267.472C884.496 267.472 885.44 268.176 885.44 269.504C885.44 270.704 884.464 271.504 883.04 271.504ZM883.04 272.624C884.56 272.624 885.712 273.344 885.712 274.832C885.712 276.176 884.688 277.104 883.04 277.104C881.392 277.104 880.352 276.192 880.352 274.832C880.352 273.296 881.552 272.624 883.04 272.624ZM893.591 278H895.047V273.152C895.047 271.264 896.071 270.336 897.559 270.336C899.031 270.336 900.007 271.248 900.007 273.04V278H901.447V272.832C901.447 270.32 899.895 269.072 897.943 269.072C896.711 269.072 895.623 269.568 895.047 270.496V266.16H893.591V278ZM912.146 273.6C912.146 270.832 910.21 269.088 907.714 269.088C905.234 269.088 903.282 270.832 903.282 273.6C903.282 276.384 905.17 278.144 907.65 278.144C910.146 278.144 912.146 276.384 912.146 273.6ZM904.77 273.6C904.77 271.392 906.162 270.352 907.698 270.352C909.202 270.352 910.658 271.392 910.658 273.6C910.658 275.824 909.17 276.864 907.65 276.864C906.13 276.864 904.77 275.824 904.77 273.6ZM915.516 273.232C915.516 271.2 916.572 270.576 917.964 270.576H918.348V269.072C916.956 269.072 916.012 269.68 915.516 270.656V269.232H914.06V278H915.516V273.232ZM919.485 273.584C919.485 276.304 921.293 278.144 923.629 278.144C925.245 278.144 926.381 277.312 926.909 276.368V278H928.381V269.232H926.909V270.832C926.397 269.92 925.277 269.088 923.645 269.088C921.293 269.088 919.485 270.848 919.485 273.584ZM926.909 273.6C926.909 275.664 925.533 276.864 923.933 276.864C922.333 276.864 920.973 275.648 920.973 273.584C920.973 271.52 922.333 270.352 923.933 270.352C925.533 270.352 926.909 271.568 926.909 273.6ZM937.145 275.616C937.081 272.48 931.993 273.616 931.993 271.536C931.993 270.832 932.633 270.32 933.705 270.32C934.873 270.32 935.545 270.96 935.609 271.84H937.065C936.969 270.128 935.689 269.088 933.753 269.088C931.801 269.088 930.537 270.192 930.537 271.536C930.537 274.8 935.721 273.664 935.721 275.616C935.721 276.336 935.081 276.912 933.929 276.912C932.697 276.912 931.945 276.272 931.865 275.424H930.361C930.457 277.024 931.897 278.144 933.945 278.144C935.881 278.144 937.145 277.056 937.145 275.616Z" fill="#6A6180"/>
<path d="M805 269.898L809 273.858L813 269.898" stroke="#9C98A6" stroke-width="1.5" stroke-linecap="round" stroke-linejoin="round"/>
<path d="M353.078 229H354.352V221.762L357.586 229H358.482L361.702 221.776V229H362.976V219.312H361.618L358.034 227.32L354.45 219.312H353.078V229ZM364.661 225.136C364.661 227.516 366.243 229.126 368.287 229.126C369.701 229.126 370.695 228.398 371.157 227.572V229H372.445V221.328H371.157V222.728C370.709 221.93 369.729 221.202 368.301 221.202C366.243 221.202 364.661 222.742 364.661 225.136ZM371.157 225.15C371.157 226.956 369.953 228.006 368.553 228.006C367.153 228.006 365.963 226.942 365.963 225.136C365.963 223.33 367.153 222.308 368.553 222.308C369.953 222.308 371.157 223.372 371.157 225.15ZM374.878 226.9C374.878 228.44 375.648 229 377.006 229H378.154V227.922H377.216C376.432 227.922 376.152 227.656 376.152 226.9V222.378H378.154V221.328H376.152V219.396H374.878V221.328H373.884V222.378H374.878V226.9ZM382.959 222.28C384.275 222.28 385.395 223.106 385.381 224.604H380.537C380.677 223.106 381.713 222.28 382.959 222.28ZM386.543 226.634H385.171C384.891 227.46 384.163 228.048 383.015 228.048C381.713 228.048 380.621 227.194 380.523 225.64H386.655C386.683 225.374 386.697 225.15 386.697 224.87C386.697 222.77 385.241 221.202 383.015 221.202C380.775 221.202 379.221 222.728 379.221 225.15C379.221 227.586 380.831 229.126 383.015 229.126C384.919 229.126 386.151 228.034 386.543 226.634ZM381.349 219.802V220.754L384.331 219.158V218.052L381.349 219.802ZM389.653 224.828C389.653 223.05 390.577 222.504 391.795 222.504H392.131V221.188C390.913 221.188 390.087 221.72 389.653 222.574V221.328H388.379V229H389.653V224.828ZM393.601 229H394.875V221.328H393.601V229ZM394.259 220.082C394.721 220.082 395.099 219.704 395.099 219.214C395.099 218.724 394.721 218.346 394.259 218.346C393.769 218.346 393.391 218.724 393.391 219.214C393.391 219.704 393.769 220.082 394.259 220.082ZM396.571 225.136C396.571 227.516 398.153 229.126 400.197 229.126C401.611 229.126 402.605 228.398 403.067 227.572V229H404.355V221.328H403.067V222.728C402.619 221.93 401.639 221.202 400.211 221.202C398.153 221.202 396.571 222.742 396.571 225.136ZM403.067 225.15C403.067 226.956 401.863 228.006 400.463 228.006C399.063 228.006 397.873 226.942 397.873 225.136C397.873 223.33 399.063 222.308 400.463 222.308C401.863 222.308 403.067 223.372 403.067 225.15Z" fill="#D4C2FF"/>
<path d="M603.116 219.242H600.078V229H603.116C606.322 229 608.296 227.166 608.296 224.142C608.296 221.118 606.322 219.242 603.116 219.242ZM601.352 227.95V220.278H603.116C605.664 220.278 606.994 221.762 606.994 224.142C606.994 226.522 605.664 227.95 603.116 227.95H601.352ZM609.976 229H611.25V221.328H609.976V229ZM610.634 220.082C611.096 220.082 611.474 219.704 611.474 219.214C611.474 218.724 611.096 218.346 610.634 218.346C610.144 218.346 609.766 218.724 609.766 219.214C609.766 219.704 610.144 220.082 610.634 220.082ZM612.946 225.136C612.946 227.516 614.528 229.126 616.572 229.126C617.986 229.126 618.98 228.398 619.442 227.572V229H620.73V221.328H619.442V222.728C618.994 221.93 618.014 221.202 616.586 221.202C614.528 221.202 612.946 222.742 612.946 225.136ZM619.442 225.15C619.442 226.956 618.238 228.006 616.838 228.006C615.438 228.006 614.248 226.942 614.248 225.136C614.248 223.33 615.438 222.308 616.838 222.308C618.238 222.308 619.442 223.372 619.442 225.15ZM626.139 225.136C626.139 227.516 627.721 229.126 629.779 229.126C631.179 229.126 632.173 228.412 632.635 227.558V229H633.923V218.64H632.635V222.7C632.103 221.818 630.997 221.202 629.793 221.202C627.721 221.202 626.139 222.742 626.139 225.136ZM632.635 225.15C632.635 226.956 631.431 228.006 630.031 228.006C628.631 228.006 627.441 226.942 627.441 225.136C627.441 223.33 628.631 222.308 630.031 222.308C631.431 222.308 632.635 223.372 632.635 225.15ZM635.6 225.136C635.6 227.516 637.182 229.126 639.226 229.126C640.64 229.126 641.634 228.398 642.096 227.572V229H643.384V221.328H642.096V222.728C641.648 221.93 640.668 221.202 639.24 221.202C637.182 221.202 635.6 222.742 635.6 225.136ZM642.096 225.15C642.096 226.956 640.892 228.006 639.492 228.006C638.092 228.006 636.902 226.942 636.902 225.136C636.902 223.33 638.092 222.308 639.492 222.308C640.892 222.308 642.096 223.372 642.096 225.15ZM654.785 226.914C654.729 224.17 650.277 225.164 650.277 223.344C650.277 222.728 650.837 222.28 651.775 222.28C652.797 222.28 653.385 222.84 653.441 223.61H654.715C654.631 222.112 653.511 221.202 651.817 221.202C650.109 221.202 649.003 222.168 649.003 223.344C649.003 226.2 653.539 225.206 653.539 226.914C653.539 227.544 652.979 228.048 651.971 228.048C650.893 228.048 650.235 227.488 650.165 226.746H648.849C648.933 228.146 650.193 229.126 651.985 229.126C653.679 229.126 654.785 228.174 654.785 226.914ZM659.846 222.28C661.162 222.28 662.282 223.106 662.268 224.604H657.424C657.564 223.106 658.6 222.28 659.846 222.28ZM663.43 226.634H662.058C661.778 227.46 661.05 228.048 659.902 228.048C658.6 228.048 657.508 227.194 657.41 225.64H663.542C663.57 225.374 663.584 225.15 663.584 224.87C663.584 222.77 662.128 221.202 659.902 221.202C657.662 221.202 656.108 222.728 656.108 225.15C656.108 227.586 657.718 229.126 659.902 229.126C661.806 229.126 663.038 228.034 663.43 226.634ZM676.34 229H677.6V224.478C677.6 222.28 676.242 221.188 674.492 221.188C673.316 221.188 672.224 221.79 671.776 222.896C671.272 221.748 670.222 221.188 668.962 221.188C667.954 221.188 667.044 221.622 666.54 222.434V221.328H665.266V229H666.54V224.772C666.54 223.12 667.422 222.294 668.71 222.294C669.97 222.294 670.81 223.092 670.81 224.66V229H672.07V224.772C672.07 223.12 672.952 222.294 674.24 222.294C675.5 222.294 676.34 223.092 676.34 224.66V229ZM679.213 225.136C679.213 227.516 680.795 229.126 682.839 229.126C684.253 229.126 685.247 228.398 685.709 227.572V229H686.997V221.328H685.709V222.728C685.261 221.93 684.281 221.202 682.853 221.202C680.795 221.202 679.213 222.742 679.213 225.136ZM685.709 225.15C685.709 226.956 684.505 228.006 683.105 228.006C681.705 228.006 680.515 226.942 680.515 225.136C680.515 223.33 681.705 222.308 683.105 222.308C684.505 222.308 685.709 223.372 685.709 225.15ZM694.764 229H696.024V224.478C696.024 222.28 694.666 221.188 692.888 221.188C691.852 221.188 690.928 221.622 690.424 222.42V221.328H689.15V229H690.424V224.758C690.424 223.106 691.32 222.294 692.622 222.294C693.91 222.294 694.764 223.092 694.764 224.66V229ZM697.629 225.136C697.629 227.516 699.211 229.126 701.255 229.126C702.669 229.126 703.663 228.398 704.125 227.572V229H705.413V221.328H704.125V222.728C703.677 221.93 702.697 221.202 701.269 221.202C699.211 221.202 697.629 222.742 697.629 225.136ZM704.125 225.15C704.125 226.956 702.921 228.006 701.521 228.006C700.121 228.006 698.931 226.942 698.931 225.136C698.931 223.33 700.121 222.308 701.521 222.308C702.921 222.308 704.125 223.372 704.125 225.15Z" fill="#D4C2FF"/>
<path d="M853.322 229H854.596V219.242H853.322V223.526H848.352V219.242H847.078V229H848.352V224.576H853.322V229ZM864.038 225.15C864.038 222.728 862.344 221.202 860.16 221.202C857.99 221.202 856.282 222.728 856.282 225.15C856.282 227.586 857.934 229.126 860.104 229.126C862.288 229.126 864.038 227.586 864.038 225.15ZM857.584 225.15C857.584 223.218 858.802 222.308 860.146 222.308C861.462 222.308 862.736 223.218 862.736 225.15C862.736 227.096 861.434 228.006 860.104 228.006C858.774 228.006 857.584 227.096 857.584 225.15ZM866.987 224.828C866.987 223.05 867.911 222.504 869.129 222.504H869.465V221.188C868.247 221.188 867.421 221.72 866.987 222.574V221.328H865.713V229H866.987V224.828ZM870.459 225.136C870.459 227.516 872.041 229.126 874.085 229.126C875.499 229.126 876.493 228.398 876.955 227.572V229H878.243V221.328H876.955V222.728C876.507 221.93 875.527 221.202 874.099 221.202C872.041 221.202 870.459 222.742 870.459 225.136ZM876.955 225.15C876.955 226.956 875.751 228.006 874.351 228.006C872.951 228.006 871.761 226.942 871.761 225.136C871.761 223.33 872.951 222.308 874.351 222.308C875.751 222.308 876.955 223.372 876.955 225.15ZM872.979 219.802V220.754L875.961 219.158V218.052L872.979 219.802ZM881.67 224.828C881.67 223.05 882.594 222.504 883.812 222.504H884.148V221.188C882.93 221.188 882.104 221.72 881.67 222.574V221.328H880.396V229H881.67V224.828ZM885.619 229H886.893V221.328H885.619V229ZM886.277 220.082C886.739 220.082 887.117 219.704 887.117 219.214C887.117 218.724 886.739 218.346 886.277 218.346C885.787 218.346 885.409 218.724 885.409 219.214C885.409 219.704 885.787 220.082 886.277 220.082ZM896.344 225.15C896.344 222.728 894.65 221.202 892.466 221.202C890.296 221.202 888.588 222.728 888.588 225.15C888.588 227.586 890.24 229.126 892.41 229.126C894.594 229.126 896.344 227.586 896.344 225.15ZM889.89 225.15C889.89 223.218 891.108 222.308 892.452 222.308C893.768 222.308 895.042 223.218 895.042 225.15C895.042 227.096 893.74 228.006 892.41 228.006C891.08 228.006 889.89 227.096 889.89 225.15Z" fill="#D4C2FF"/>
<g clip-path="url(#clip1)">
<path d="M1241.71 24.6436H1236.2C1234.74 24.6436 1234 25.4476 1234 27.0402V35.5641C1234 35.7728 1234.1 35.9014 1234.31 35.9014H1235.98C1236.18 35.9014 1236.3 35.7728 1236.3 35.5641V35.2404C1236.3 34.4509 1236.6 34.0207 1237.33 33.9377H1241.71C1243.32 33.9377 1244.04 33.15 1244.04 31.4289V27.1524C1244.04 25.4312 1243.32 24.6436 1241.71 24.6436ZM1241.74 30.705C1241.74 31.6385 1241.56 31.8309 1240.57 31.8309H1238.24C1237.26 31.8309 1236.63 32.201 1236.3 32.9249V27.6675C1236.3 26.9436 1236.46 26.7503 1237.24 26.7503H1240.57C1241.56 26.7503 1241.74 26.9436 1241.74 27.8762V30.705Z" fill="white"/>
<path d="M1249.32 29.3558C1248.06 29.3558 1247.52 30.0797 1247.52 31.3022V35.596C1247.52 35.7893 1247.43 35.9014 1247.23 35.9014H1245.72C1245.52 35.9014 1245.42 35.7893 1245.42 35.596V27.7477C1245.42 27.5544 1245.52 27.4414 1245.72 27.4414H1246.99C1247.17 27.4414 1247.27 27.5544 1247.27 27.7477V29.014C1247.52 27.9692 1248.21 27.4377 1249.45 27.4377H1249.96C1250.15 27.4377 1250.25 27.5508 1250.25 27.7441V29.0504C1250.25 29.2592 1250.15 29.3558 1249.96 29.3558H1249.32Z" fill="white"/>
<path d="M1259.14 33.6013C1259.14 35.194 1258.51 35.9014 1257.02 35.9014H1253.32C1251.84 35.9014 1251.2 35.194 1251.2 33.6013V29.7433C1251.2 28.1516 1251.84 27.4432 1253.32 27.4432H1257.02C1258.51 27.4432 1259.14 28.1516 1259.14 29.7433V33.6013ZM1257.05 30.3532C1257.05 29.5163 1256.91 29.3559 1256.02 29.3559H1254.33C1253.44 29.3559 1253.29 29.5163 1253.29 30.3532V32.9906C1253.29 33.8265 1253.44 33.9879 1254.33 33.9879H1256.02C1256.91 33.9879 1257.05 33.8265 1257.05 32.9906V30.3532Z" fill="white"/>
<path d="M1261.25 29.3559H1260.53C1260.35 29.3559 1260.25 29.2592 1260.25 29.0505V27.7477C1260.25 27.5545 1260.35 27.4414 1260.53 27.4414H1261.25V26.3967C1261.25 24.8041 1261.99 24 1263.45 24H1265.2C1265.4 24 1265.49 24.113 1265.49 24.3054V25.6081C1265.49 25.8178 1265.4 25.9135 1265.2 25.9135H1264.28C1263.49 25.9135 1263.34 26.1068 1263.34 26.8306V27.4414H1265.2C1265.4 27.4414 1265.49 27.5545 1265.49 27.7477V29.0505C1265.49 29.2592 1265.4 29.3559 1265.2 29.3559H1263.34V35.596C1263.34 35.7893 1263.24 35.9014 1263.04 35.9014H1261.53C1261.33 35.9014 1261.25 35.7893 1261.25 35.596V29.3559Z" fill="white"/>
<path d="M1267.05 29.3559H1266.34C1266.16 29.3559 1266.06 29.2592 1266.06 29.0505V27.7477C1266.06 27.5545 1266.16 27.4414 1266.34 27.4414H1267.05V26.3967C1267.05 24.8041 1267.79 24 1269.26 24H1271.01C1271.21 24 1271.29 24.113 1271.29 24.3054V25.6081C1271.29 25.8178 1271.21 25.9135 1271.01 25.9135H1270.08C1269.3 25.9135 1269.14 26.1068 1269.14 26.8306V27.4414H1271.01C1271.21 27.4414 1271.29 27.5545 1271.29 27.7477V29.0505C1271.29 29.2592 1271.21 29.3559 1271.01 29.3559H1269.14V35.596C1269.14 35.7893 1269.04 35.9014 1268.84 35.9014H1267.33C1267.14 35.9014 1267.05 35.7893 1267.05 35.596V29.3559Z" fill="white"/>
<path d="M1277.65 39.1824H1274.55C1273.15 39.1824 1272.56 38.5716 1272.56 37.0592V36.8988C1272.55 36.8556 1272.56 36.8119 1272.57 36.771C1272.58 36.7301 1272.6 36.693 1272.63 36.6624C1272.66 36.6318 1272.69 36.6086 1272.73 36.5945C1272.76 36.5803 1272.8 36.5756 1272.84 36.5806H1274.29C1274.49 36.5806 1274.59 36.6936 1274.59 36.9024V36.9826C1274.59 37.3044 1274.75 37.433 1275.06 37.433H1276.85C1277.71 37.433 1277.92 37.1923 1277.92 36.3718V33.8348C1277.59 34.5586 1276.97 34.9287 1275.99 34.9287H1274.53C1273.05 34.9287 1272.4 34.2213 1272.4 32.6287V27.7477C1272.4 27.7056 1272.4 27.6635 1272.42 27.6243C1272.43 27.5851 1272.45 27.5497 1272.48 27.5206C1272.51 27.4915 1272.54 27.4694 1272.57 27.4557C1272.61 27.442 1272.65 27.4372 1272.68 27.4414H1274.21C1274.39 27.4414 1274.49 27.5545 1274.49 27.7477V32.0224C1274.49 32.8584 1274.65 33.0197 1275.53 33.0197H1276.61C1277.55 33.0197 1277.92 32.5849 1277.92 31.7006V27.7477C1277.92 27.5545 1278.02 27.4414 1278.21 27.4414H1279.73C1279.77 27.4375 1279.8 27.4427 1279.84 27.4567C1279.87 27.4707 1279.9 27.4931 1279.93 27.5224C1279.95 27.5517 1279.97 27.5871 1279.99 27.6261C1280 27.665 1280 27.7066 1280 27.7477V36.6253C1280 38.3127 1279.2 39.1824 1277.65 39.1824Z" fill="white"/>
</g>
<g clip-path="url(#clip2)">
<path d="M162 32.2157L208 32.2157" stroke="#BDA5F6" stroke-width="1.5" stroke-linecap="round" stroke-linejoin="round"/>
<path d="M166.001 36.9715L161 32.2157L166.001 27.4598" stroke="#BDA5F6" stroke-width="1.5" stroke-linecap="round" stroke-linejoin="round"/>
</g>
</g>
<defs>
<clipPath id="clip0">
<rect width="1440" height="820" fill="white"/>
</clipPath>
<clipPath id="clip1">
<rect width="46" height="15.2156" fill="white" transform="translate(1234 24)"/>
</clipPath>
<clipPath id="clip2">
<rect width="30.4312" height="49" fill="white" transform="translate(209 17) rotate(90)"/>
</clipPath>
</defs>
</svg>
